<!--
  ~ SPDX-FileCopyrightText: 2024 SAP SE or an SAP affiliate company and Greenhouse contributors
  ~ SPDX-License-Identifier: Apache-2.0
-->



<svg xmlns="http://www.w3.org/2000/svg" width="52" height="92" fill="none" viewBox="0 0 52 92">
  <path fill="#fff" fill-rule="evenodd" d="M25.155.153a1.491 1.491 0 0 1 1.316 0L50.29 11.828c.74.364 1.073.93.71 1.672-.363.741-1.285 1.376-2.026 1.012L25.814 3.16 3.488 14.102v36.15h22.324a1.495 1.495 0 0 1 0 2.99H1.995c-.826 0-1.495-.67-1.495-1.495V13.17c0-.57.325-1.09.837-1.342L25.155.153Z" clip-rule="evenodd"/>
  <path fill="#fff" fill-rule="evenodd" d="M25.155.153a1.491 1.491 0 0 1 1.316 0L50.29 11.828c.74.364 1.073.93.71 1.672-.363.741-1.285 1.376-2.026 1.012L25.814 3.16 3.488 14.102v36.15h22.324a1.495 1.495 0 0 1 0 2.99H1.995c-.826 0-1.495-.67-1.495-1.495V13.17c0-.57.325-1.09.837-1.342L25.155.153Z" clip-rule="evenodd"/>
  <path fill="#fff" fill-rule="evenodd" d="M50.29 11.828c.795.39 1.21.797 1.21 1.623v38.296a1.495 1.495 0 1 1-2.989 0V13.45c0-.825.953-1.622 1.779-1.622ZM26 44.607l-8.344-4.04a1.214 1.214 0 0 0-1.058 2.185l8.863 4.292a1.237 1.237 0 0 0 .54.127 1.209 1.209 0 0 0 .539-.127l17.737-8.588a1.214 1.214 0 1 0-1.059-2.186L26 44.607Z" clip-rule="evenodd"/>
  <path fill="#fff" fill-rule="evenodd" d="M26 24.5c.825-.004 1.397.162 1.401.988l.187 26.252a1.494 1.494 0 1 1-2.99.014l-.186-26.252c-.004-.826.763-.998 1.588-1.002Z" clip-rule="evenodd"/>
  <path fill="#fff" fill-rule="evenodd" d="m26 34.519-8.344-4.04a1.214 1.214 0 0 0-1.058 2.185l8.863 4.292a1.237 1.237 0 0 0 .54.127 1.208 1.208 0 0 0 .539-.127l17.737-8.589a1.214 1.214 0 1 0-1.059-2.185L26 34.519Zm-.015-10.189-8.33-4.032a1.214 1.214 0 1 0-1.058 2.185l8.862 4.291a1.214 1.214 0 0 0 1.107-.012l23.713-12.137a1.214 1.214 0 1 0-1.107-2.162L25.985 24.33Z" clip-rule="evenodd"/>
  <path fill="#fff" d="M43.637 91.07V80.25H51v2.093h-5.007v2.217h4.294v2.077h-4.294v2.34H51v2.093h-7.363Zm-6.17.186c-.95 0-1.756-.16-2.418-.48a5.634 5.634 0 0 1-1.69-1.272l1.55-1.565c.734.827 1.639 1.24 2.713 1.24.579 0 1.008-.119 1.287-.357.279-.237.418-.552.418-.945 0-.3-.082-.548-.248-.744-.165-.207-.5-.346-1.007-.419l-1.07-.14c-1.147-.144-1.99-.49-2.526-1.038-.527-.547-.791-1.276-.791-2.185 0-.486.093-.93.279-1.334.186-.402.45-.749.79-1.038a3.72 3.72 0 0 1 1.272-.667 5.54 5.54 0 0 1 1.72-.248c.817 0 1.535.13 2.155.388.62.258 1.152.635 1.596 1.132l-1.565 1.58a3.007 3.007 0 0 0-.946-.728c-.361-.196-.821-.295-1.38-.295-.526 0-.919.093-1.177.28a.901.901 0 0 0-.388.775c0 .372.098.64.295.806.206.165.537.284.992.356l1.07.17c1.115.176 1.942.522 2.48 1.04.537.506.806 1.229.806 2.17 0 .516-.093.991-.28 1.425-.186.434-.46.806-.821 1.117-.351.31-.79.552-1.318.728-.527.165-1.126.248-1.798.248ZM25.433 80.25v6.635c0 .764.15 1.338.45 1.72.3.372.8.558 1.504.558.702 0 1.203-.186 1.503-.558.3-.382.45-.956.45-1.72V80.25h2.294v6.387c0 .796-.078 1.488-.233 2.077-.145.579-.387 1.06-.728 1.442-.341.371-.78.65-1.318.837-.537.175-1.194.263-1.968.263-.776 0-1.432-.088-1.97-.263-.537-.186-.976-.465-1.317-.837-.34-.383-.589-.863-.744-1.442-.145-.59-.217-1.281-.217-2.077V80.25h2.294Zm-8.957 11.006a5.176 5.176 0 0 1-1.953-.356 3.971 3.971 0 0 1-1.504-1.055c-.413-.475-.734-1.059-.961-1.751-.227-.703-.341-1.514-.341-2.434 0-.92.114-1.726.341-2.418.227-.703.548-1.287.961-1.752a3.896 3.896 0 0 1 1.504-1.07 5.174 5.174 0 0 1 1.953-.356c.713 0 1.364.12 1.953.357a3.9 3.9 0 0 1 1.504 1.07c.413.465.733 1.048.96 1.751.228.692.342 1.498.342 2.418 0 .92-.114 1.731-.341 2.434-.228.692-.548 1.276-.961 1.752a3.97 3.97 0 0 1-1.504 1.054 5.175 5.175 0 0 1-1.953.356Zm0-2.093c.713 0 1.266-.232 1.658-.697.403-.465.605-1.132.605-2v-1.612c0-.868-.202-1.534-.605-2-.392-.465-.945-.697-1.658-.697s-1.271.233-1.674.698c-.393.465-.59 1.131-.59 2v1.611c0 .868.197 1.535.59 2 .403.465.96.697 1.674.697Zm-9.078-2.526H3.275v4.433H.919V80.25h2.356v4.31h4.123v-4.31h2.356v10.82H7.398v-4.433Zm37.24-19.505-1.039-2.17h-.046v7.285h-2.217v-10.82h2.573l2.96 5.116 1.04 2.17h.046v-7.285h2.217v10.82h-2.573l-2.961-5.116ZM31.92 72.247v-10.82h7.363v2.093h-5.006v2.217h4.293v2.077h-4.293v2.34h5.006v2.093H31.92Zm-9.415 0v-10.82h7.363v2.093H24.86v2.217h4.294v2.077H24.86v2.34h5.007v2.093h-7.363Zm-8.089 0H12.06v-10.82h5.13c.497 0 .946.083 1.35.249a2.77 2.77 0 0 1 1.022.713c.29.3.512.661.667 1.085.155.424.232.894.232 1.41 0 .734-.165 1.375-.496 1.923-.32.547-.81.945-1.472 1.193l2.123 4.247h-2.62l-1.89-3.968h-1.69v3.968Zm2.48-5.952c.351 0 .625-.088.822-.264.206-.186.31-.454.31-.806v-.682c0-.35-.104-.614-.31-.79-.197-.186-.47-.28-.822-.28h-2.48v2.822h2.48Zm-9.111 4.232h-.077c-.083.547-.362 1.002-.837 1.364-.475.362-1.121.542-1.938.542a4.24 4.24 0 0 1-1.736-.356 3.985 3.985 0 0 1-1.41-1.054c-.403-.465-.719-1.044-.946-1.736C.614 68.594.5 67.793.5 66.884c0-.91.119-1.715.357-2.418.237-.703.568-1.292.992-1.767.434-.475.95-.837 1.55-1.085.6-.248 1.266-.372 2-.372.97 0 1.808.212 2.51.635.703.414 1.256 1.039 1.66 1.876l-1.923 1.1a2.578 2.578 0 0 0-.775-1.07c-.351-.299-.842-.449-1.473-.449-.733 0-1.317.212-1.751.636-.434.424-.651 1.09-.651 2v1.736c0 .899.217 1.565.65 2 .435.423 1.019.635 1.752.635.29 0 .564-.031.822-.093.258-.073.486-.176.682-.31.196-.145.346-.315.45-.512.113-.196.17-.429.17-.697v-.543H5.507v-1.968H9.77v6.03H7.785v-1.721Z"/>
</svg>
