<!--
  ~ SPDX-FileCopyrightText: 2024 SAP SE or an SAP affiliate company and Greenhouse contributors
  ~ SPDX-License-Identifier: Apache-2.0
-->



<svg xmlns="http://www.w3.org/2000/svg" width="36" height="36" fill="currentColor" viewBox="0 0 36 36">
  <g clip-path="url(#a)">
    <path d="M34.5 18c0 9.113-7.387 16.5-16.5 16.5S1.5 27.113 1.5 18c0-4.076 1.478-7.807 3.928-10.686l2.618 2.618a1.134 1.134 0 0 0-.123.135c-.374.475-.718.983-1.029 1.522-3.541 6.133-1.44 13.976 4.694 17.517 6.133 3.541 13.976 1.44 17.517-4.694a12.764 12.764 0 0 0 1.706-7.005 2.977 2.977 0 0 0-1.442-5.34 12.763 12.763 0 0 0-4.958-5.172 12.766 12.766 0 0 0-7.741-1.65c-.757.08-1.212.84-1.008 1.573.186.668.856 1.07 1.547 1.015a10.15 10.15 0 0 1 5.89 1.336 10.151 10.151 0 0 1 3.774 3.803 2.977 2.977 0 0 0 1.325 4.91 10.151 10.151 0 0 1-1.367 5.217c-2.816 4.878-9.053 6.549-13.93 3.733-4.878-2.816-6.549-9.053-3.733-13.93.202-.35.421-.682.656-.998.028-.038.054-.076.078-.115l2.327 2.327a1.097 1.097 0 0 0-.048.067 6.958 6.958 0 1 0 5.751-3.143c-.768.009-1.231.783-1.025 1.524.186.664.853 1.055 1.539 1.125a4.332 4.332 0 1 1-4.304 2.339l2.905 2.905a1.335 1.335 0 0 0 1.887-1.888L7.316 5.426A16.435 16.435 0 0 1 18 1.5c9.113 0 16.5 7.387 16.5 16.5Z"/>
  </g>
  <defs>
    <clipPath id="a">
      <path d="M0 0h36v36H0z"/>
    </clipPath>
  </defs>
</svg>
