<!--
  ~ SPDX-FileCopyrightText: 2024 SAP SE or an SAP affiliate company and Greenhouse contributors
  ~ SPDX-License-Identifier: Apache-2.0
-->



<svg width="547" height="547" viewBox="0 0 547 547" fill="none" xmlns="http://www.w3.org/2000/svg">
<rect width="547" height="547" fill="#000810"/>
<path fill-rule="evenodd" clip-rule="evenodd" d="M264.588 31.7621C268.318 29.9335 272.685 29.9335 276.415 31.7621L490.537 136.724C497.199 139.99 500.188 145.088 496.922 151.751C493.656 158.414 485.372 164.117 478.709 160.851L270.501 58.7882L69.8146 157.164V482.145H270.501C277.921 482.145 283.936 488.161 283.936 495.581C283.936 503.001 277.921 509.016 270.501 509.016H56.3795C48.9596 509.016 42.9445 503.001 42.9445 495.581V148.787C42.9445 143.66 45.8624 138.98 50.466 136.724L264.588 31.7621Z" fill="white"/>
<path fill-rule="evenodd" clip-rule="evenodd" d="M264.588 31.7621C268.318 29.9335 272.685 29.9335 276.415 31.7621L490.537 136.724C497.199 139.99 500.188 145.088 496.922 151.751C493.656 158.414 485.372 164.117 478.709 160.851L270.501 58.7882L69.8146 157.164V482.145H270.501C277.921 482.145 283.936 488.161 283.936 495.581C283.936 503.001 277.921 509.016 270.501 509.016H56.3795C48.9596 509.016 42.9445 503.001 42.9445 495.581V148.787C42.9445 143.66 45.8624 138.98 50.466 136.724L264.588 31.7621Z" fill="white"/>
<path fill-rule="evenodd" clip-rule="evenodd" d="M490.537 136.724C497.684 140.227 501.417 143.886 501.417 151.306V495.581C501.417 503.001 495.402 509.016 487.982 509.016C480.562 509.016 474.547 503.001 474.547 495.581V151.306C474.547 143.886 483.117 136.724 490.537 136.724Z" fill="white"/>
<path fill-rule="evenodd" clip-rule="evenodd" d="M272.183 431.391L197.17 395.069C191.743 392.441 185.215 394.71 182.587 400.136C179.96 405.563 182.229 412.091 187.655 414.719L267.331 453.298C267.501 453.382 267.672 453.462 267.846 453.537C269.256 454.149 270.73 454.439 272.183 454.438C273.636 454.439 275.111 454.149 276.52 453.537C276.694 453.462 276.866 453.382 277.035 453.298L436.482 376.093C441.908 373.465 444.177 366.937 441.55 361.511C438.922 356.084 432.394 353.816 426.967 356.443L272.183 431.391Z" fill="white"/>
<path fill-rule="evenodd" clip-rule="evenodd" d="M272.181 250.637C279.601 250.602 284.741 252.095 284.776 259.515L286.455 495.518C286.49 502.938 280.503 508.981 273.083 509.015C265.663 509.05 259.62 503.063 259.585 495.643L257.906 259.64C257.871 252.22 264.761 250.672 272.181 250.637Z" fill="white"/>
<path fill-rule="evenodd" clip-rule="evenodd" d="M272.183 340.704L197.17 304.381C191.743 301.754 185.215 304.023 182.587 309.449C179.96 314.875 182.229 321.404 187.655 324.031L267.331 362.611C267.501 362.695 267.672 362.774 267.846 362.85C269.256 363.461 270.73 363.752 272.183 363.75C273.637 363.752 275.111 363.461 276.52 362.85C276.694 362.774 276.866 362.695 277.035 362.611L436.482 285.405C441.908 282.778 444.177 276.249 441.55 270.823C438.922 265.397 432.394 263.128 426.968 265.755L272.183 340.704Z" fill="white"/>
<path fill-rule="evenodd" clip-rule="evenodd" d="M272.048 249.115L197.17 212.858C191.743 210.231 185.215 212.499 182.587 217.925C179.96 223.352 182.229 229.88 187.655 232.508L267.314 271.079C267.517 271.18 267.723 271.275 267.931 271.363C269.353 271.966 270.839 272.243 272.302 272.226C273.766 272.212 275.247 271.901 276.657 271.266C276.863 271.174 277.067 271.075 277.267 270.969L490.436 161.862C495.803 159.116 497.927 152.538 495.18 147.172C492.433 141.805 485.856 139.681 480.489 142.428L272.048 249.115Z" fill="white"/>
</svg>
