<!--
  ~ SPDX-FileCopyrightText: 2024 SAP SE or an SAP affiliate company and Greenhouse contributors
  ~ SPDX-License-Identifier: Apache-2.0
-->



<svg width="50" height="50" viewBox="0 0 50 50" fill="none" xmlns="http://www.w3.org/2000/svg">
<path fill-rule="evenodd" clip-rule="evenodd" d="M1.71072 0C0.765916 0 0 0.765914 0 1.71072V48.2893C0 49.2341 0.765914 50 1.71072 50H8.60163C6.8862 47.86 5.86011 45.1436 5.86011 42.1876C5.86011 35.8119 10.6335 30.551 16.8015 29.7838C17.5775 23.1315 23.2323 17.9689 30.0929 17.9689C34.8344 17.9689 39 20.4348 41.3771 24.1541C42.3135 23.9596 43.2837 23.8573 44.2778 23.8573C46.3139 23.8573 48.2498 24.2863 50 25.0588V1.71072C50 0.765916 49.2341 0 48.2893 0H1.71072ZM50 28.9241C48.3424 27.8817 46.3805 27.2788 44.2778 27.2788C43.5189 27.2788 42.782 27.3568 42.0732 27.504L39.7642 27.9838L38.4942 25.9967C36.7192 23.2194 33.6185 21.3903 30.0929 21.3903C24.9888 21.3903 20.7771 25.2323 20.1999 30.1803L19.8887 32.8476L17.2238 33.1791C12.7476 33.7359 9.28155 37.5596 9.28155 42.1876C9.28155 45.509 11.0671 48.4174 13.7311 50H48.2893C49.2341 50 50 49.2341 50 48.2893V28.9241Z" fill="#F0AB00"/>
</svg>
