<!--
  ~ SPDX-FileCopyrightText: 2024 SAP SE or an SAP affiliate company and Greenhouse contributors
  ~ SPDX-License-Identifier: Apache-2.0
-->



<svg xmlns="http://www.w3.org/2000/svg" width="36" height="36" fill="currentColor" viewBox="0 0 36 36">
  <g clip-path="url(#a)">
    <path d="M18 9.722a8.277 8.277 0 1 0 0 16.555 8.277 8.277 0 0 0 0-16.555Z"/>
    <path d="M34.5 18c-6.51-4.146-6.188-7.405 0-16.5-9.013 5.486-12.354 6.51-16.5 0-3.161 5.033-6.027 6.32-11.662 4.838 1.482 5.634.196 8.5-4.838 11.661 5.034 3.162 7.764 6.374 0 16.5 8.89-5.403 12.386-6.496 16.5 0 3.161-5.033 6.028-6.32 11.662-4.838-1.482-5.634-.196-8.5 4.838-11.662ZM18 28.812c-5.973 0-10.813-4.842-10.813-10.814 0-5.971 4.84-10.812 10.813-10.812 5.971 0 10.813 4.84 10.813 10.812 0 5.972-4.842 10.814-10.813 10.814Z"/>
  </g>
  <defs>
    <clipPath id="a">
      <path d="M0 0h36v36H0z"/>
    </clipPath>
  </defs>
</svg>
