<!--
  ~ SPDX-FileCopyrightText: 2024 SAP SE or an SAP affiliate company and Greenhouse contributors
  ~ SPDX-License-Identifier: Apache-2.0
-->



<svg width="24px" height="24px" viewBox="0 0 24 24" version="1.1" xmlns="http://www.w3.org/2000/svg" xmlns:xlink="http://www.w3.org/1999/xlink">
    <path d="M22,17.9999996 L22,19.9999996 L2,19.9999996 L2,17.9999996 L22,17.9999996 Z M12,6.428571 C14.7642857,6.428571 17.0146825,8.23991359 17.1375716,10.5179164 L17.1428571,10.7142853 L17.1428571,16.7142853 L6.85714286,16.7142853 L6.85714286,10.7142853 L6.86242835,10.5179164 C6.98531746,8.23991359 9.23571429,6.428571 12,6.428571 Z M12,7.71428529 L12,15.428571 L15.8571429,15.428571 L15.8571429,11.1428567 L15.851803,10.960591 C15.745448,9.15003461 14.0636603,7.71428529 12,7.71428529 Z M19.075912,3.96838198 L20.490712,5.38218198 L18.370012,7.50438202 L16.955212,6.09058202 L19.075912,3.96838198 Z M4.956739,3.939208 L7.078039,6.060508 L5.663839,7.474708 L3.542539,5.353408 L4.956739,3.939208 Z M13,1.428571 L13,4.428571 L11,4.428571 L11,1.428571 L13,1.428571 Z"></path>
</svg>