<!--
  ~ SPDX-FileCopyrightText: 2024 SAP SE or an SAP affiliate company and Greenhouse contributors
  ~ SPDX-License-Identifier: Apache-2.0
-->

<svg xmlns="http://www.w3.org/2000/svg" width="51" height="51" fill="none" viewBox="0 0 51 51">
  <path fill="#000" fill-rule="evenodd" d="M24.655.153a1.491 1.491 0 0 1 1.316 0L49.79 11.828c.74.364 1.073.93.71 1.672-.363.741-1.285 1.376-2.026 1.012L25.314 3.16 2.988 14.102v36.15h22.324a1.495 1.495 0 0 1 0 2.99H1.495c-.826 0-1.495-.67-1.495-1.495V13.17c0-.57.325-1.09.837-1.342L24.655.153Z" clip-rule="evenodd"/>
  <path fill="#000" fill-rule="evenodd" d="M24.655.153a1.491 1.491 0 0 1 1.316 0L49.79 11.828c.74.364 1.073.93.71 1.672-.363.741-1.285 1.376-2.026 1.012L25.314 3.16 2.988 14.102v36.15h22.324a1.495 1.495 0 0 1 0 2.99H1.495c-.826 0-1.495-.67-1.495-1.495V13.17c0-.57.325-1.09.837-1.342L24.655.153Z" clip-rule="evenodd"/>
  <path fill="#000" fill-rule="evenodd" d="M49.79 11.828c.795.39 1.21.797 1.21 1.623v38.296a1.495 1.495 0 1 1-2.989 0V13.45c0-.825.953-1.622 1.779-1.622ZM25.5 44.607l-8.344-4.04a1.214 1.214 0 0 0-1.058 2.185l8.863 4.292a1.237 1.237 0 0 0 .54.127 1.209 1.209 0 0 0 .539-.127l17.737-8.588a1.214 1.214 0 1 0-1.059-2.186L25.5 44.607Z" clip-rule="evenodd"/>
  <path fill="#000" fill-rule="evenodd" d="M25.5 24.5c.825-.004 1.397.162 1.401.988l.187 26.252a1.494 1.494 0 1 1-2.99.014l-.186-26.252c-.004-.826.763-.998 1.588-1.002Z" clip-rule="evenodd"/>
  <path fill="#000" fill-rule="evenodd" d="m25.5 34.519-8.344-4.04a1.214 1.214 0 0 0-1.058 2.185l8.863 4.292a1.237 1.237 0 0 0 .54.127 1.208 1.208 0 0 0 .539-.127l17.737-8.589a1.214 1.214 0 1 0-1.059-2.185L25.5 34.519Zm-.015-10.189-8.33-4.032a1.214 1.214 0 1 0-1.058 2.185l8.862 4.291a1.214 1.214 0 0 0 1.107-.012l23.713-12.137a1.214 1.214 0 1 0-1.107-2.162L25.485 24.33Z" clip-rule="evenodd"/>
</svg>
