<svg xmlns="http://www.w3.org/2000/svg" width="51" height="92" fill="none" viewBox="0 0 51 92">
  <path fill="#000" fill-rule="evenodd" d="M24.655.153a1.491 1.491 0 0 1 1.316 0L49.79 11.828c.74.364 1.073.93.71 1.672-.363.741-1.285 1.376-2.026 1.012L25.314 3.16 2.988 14.102v36.15h22.324a1.495 1.495 0 0 1 0 2.99H1.495c-.826 0-1.495-.67-1.495-1.495V13.17c0-.57.325-1.09.837-1.342L24.655.153Z" clip-rule="evenodd"/>
  <path fill="#000" fill-rule="evenodd" d="M24.655.153a1.491 1.491 0 0 1 1.316 0L49.79 11.828c.74.364 1.073.93.71 1.672-.363.741-1.285 1.376-2.026 1.012L25.314 3.16 2.988 14.102v36.15h22.324a1.495 1.495 0 0 1 0 2.99H1.495c-.826 0-1.495-.67-1.495-1.495V13.17c0-.57.325-1.09.837-1.342L24.655.153Z" clip-rule="evenodd"/>
  <path fill="#000" fill-rule="evenodd" d="M49.79 11.828c.795.39 1.21.797 1.21 1.623v38.296a1.495 1.495 0 1 1-2.989 0V13.45c0-.825.953-1.622 1.779-1.622ZM25.5 44.607l-8.344-4.04a1.214 1.214 0 0 0-1.058 2.185l8.863 4.292a1.237 1.237 0 0 0 .54.127 1.209 1.209 0 0 0 .539-.127l17.737-8.588a1.214 1.214 0 1 0-1.059-2.186L25.5 44.607Z" clip-rule="evenodd"/>
  <path fill="#000" fill-rule="evenodd" d="M25.5 24.5c.825-.004 1.397.162 1.401.988l.187 26.252a1.494 1.494 0 1 1-2.99.014l-.186-26.252c-.004-.826.763-.998 1.588-1.002Z" clip-rule="evenodd"/>
  <path fill="#000" fill-rule="evenodd" d="m25.5 34.519-8.344-4.04a1.214 1.214 0 0 0-1.058 2.185l8.863 4.292a1.237 1.237 0 0 0 .54.127 1.208 1.208 0 0 0 .539-.127l17.737-8.589a1.214 1.214 0 1 0-1.059-2.185L25.5 34.519Zm-.015-10.189-8.33-4.032a1.214 1.214 0 1 0-1.058 2.185l8.862 4.291a1.214 1.214 0 0 0 1.107-.012l23.713-12.137a1.214 1.214 0 1 0-1.107-2.162L25.485 24.33Z" clip-rule="evenodd"/>
  <path fill="#000" d="M43.137 91.07V80.25H50.5v2.093h-5.007v2.216h4.294v2.077h-4.294v2.341H50.5v2.093h-7.363Zm-6.17.188c-.95 0-1.757-.16-2.418-.48a5.636 5.636 0 0 1-1.69-1.272l1.55-1.565c.734.827 1.638 1.24 2.713 1.24.579 0 1.008-.119 1.287-.356.279-.238.418-.553.418-.946 0-.3-.082-.548-.248-.744-.165-.207-.501-.346-1.007-.419l-1.07-.14c-1.147-.144-1.99-.49-2.527-1.038-.527-.547-.79-1.276-.79-2.185 0-.486.093-.93.279-1.334.186-.403.45-.749.79-1.038a3.72 3.72 0 0 1 1.272-.667 5.54 5.54 0 0 1 1.72-.248c.816 0 1.535.13 2.155.388.62.258 1.152.636 1.596 1.132l-1.565 1.58a3.008 3.008 0 0 0-.946-.728c-.361-.196-.821-.294-1.38-.294-.526 0-.92.093-1.177.279a.901.901 0 0 0-.388.775c0 .372.098.64.295.806.206.165.537.284.992.356l1.07.17c1.115.176 1.942.523 2.48 1.04.537.506.805 1.229.805 2.17 0 .516-.093.992-.279 1.425-.186.434-.46.806-.821 1.116-.352.31-.79.553-1.318.73-.527.164-1.126.247-1.798.247ZM24.933 80.25v6.634c0 .765.15 1.339.45 1.721.3.372.8.558 1.503.558.703 0 1.204-.186 1.504-.558.3-.382.45-.956.45-1.72V80.25h2.294v6.386c0 .796-.078 1.489-.233 2.078-.145.578-.387 1.059-.728 1.441-.341.372-.78.651-1.318.837-.537.176-1.194.264-1.969.264-.775 0-1.43-.088-1.968-.264-.538-.186-.977-.465-1.318-.837-.34-.382-.589-.863-.744-1.442-.145-.588-.217-1.28-.217-2.077V80.25h2.294Zm-8.957 11.008a5.174 5.174 0 0 1-1.953-.356 3.97 3.97 0 0 1-1.504-1.055c-.413-.475-.734-1.059-.96-1.751-.228-.703-.342-1.514-.342-2.434 0-.92.114-1.726.341-2.418.227-.703.548-1.287.961-1.751a3.896 3.896 0 0 1 1.504-1.07 5.174 5.174 0 0 1 1.953-.357c.713 0 1.364.12 1.953.357a3.9 3.9 0 0 1 1.504 1.07c.413.465.733 1.048.96 1.751.228.692.342 1.499.342 2.418 0 .92-.114 1.731-.341 2.434-.228.692-.548 1.276-.961 1.751a3.97 3.97 0 0 1-1.504 1.055 5.19 5.19 0 0 1-1.953.356Zm0-2.093c.713 0 1.266-.232 1.658-.697.404-.465.605-1.132.605-2v-1.612c0-.868-.201-1.534-.605-2-.392-.464-.945-.697-1.658-.697s-1.271.233-1.674.698c-.393.465-.59 1.131-.59 2v1.611c0 .868.197 1.535.59 2 .403.465.96.697 1.674.697Zm-9.078-2.529H2.775v4.434H.418V80.25h2.357v4.31h4.123v-4.31h2.356v10.82H6.898v-4.434Zm37.24-19.502-1.039-2.17h-.046v7.285h-2.217V61.43h2.573l2.961 5.116 1.039 2.17h.046V61.43h2.217v10.82h-2.573l-2.961-5.116ZM31.42 72.25V61.43h7.363v2.092h-5.006v2.217h4.293v2.077h-4.293v2.34h5.006v2.093H31.42Zm-9.415 0V61.43h7.363v2.092H24.36v2.217h4.294v2.077H24.36v2.34h5.007v2.093h-7.363Zm-8.089 0H11.56V61.43h5.13c.497 0 .946.082 1.35.248a2.77 2.77 0 0 1 1.022.713c.29.3.512.661.667 1.085.155.424.232.894.232 1.41 0 .734-.165 1.375-.496 1.922-.32.548-.81.946-1.472 1.194l2.123 4.247h-2.62l-1.89-3.968h-1.69v3.968Zm2.48-5.953c.351 0 .625-.088.822-.263.206-.187.31-.455.31-.807v-.682c0-.351-.104-.614-.31-.79-.197-.186-.47-.28-.822-.28h-2.48v2.822h2.48Zm-9.111 4.23h-.077c-.083.548-.362 1.003-.837 1.364-.475.362-1.121.543-1.938.543a4.24 4.24 0 0 1-1.736-.357 3.986 3.986 0 0 1-1.41-1.054C.884 70.558.568 69.98.34 69.287.114 68.595 0 67.794 0 66.884c0-.909.119-1.715.357-2.418.237-.702.568-1.291.992-1.767.434-.475.95-.837 1.55-1.085.6-.248 1.266-.372 2-.372.97 0 1.808.212 2.51.636.703.413 1.256 1.038 1.66 1.875l-1.923 1.1a2.578 2.578 0 0 0-.775-1.069c-.351-.3-.842-.45-1.473-.45-.733 0-1.317.213-1.751.636-.434.424-.651 1.09-.651 2v1.736c0 .9.217 1.566.65 2 .435.423 1.019.635 1.752.635.29 0 .564-.03.822-.093.258-.072.486-.175.682-.31.196-.144.346-.315.45-.511.113-.197.17-.43.17-.698v-.542H5.007v-1.969H9.27v6.03H7.285v-1.72Z"/>
</svg>
